HIERARCHY
ROOT hip
{
	OFFSET 0.000000 0.000000 0.000000 
	CHANNELS 6 Xposition Yposition Zposition Xrotation Zrotation Yrotation
	JOINT abdomen
	{
		OFFSET 0.000000 3.402643 0.000000 
		CHANNELS 3 Xrotation Zrotation Yrotation
		JOINT chest
		{
			OFFSET 0.000000 8.438565 -0.680529 
			CHANNELS 3 Xrotation Zrotation Yrotation
			JOINT neck
			{
				OFFSET 0.000000 10.207942 -0.272212 
				CHANNELS 3 Xrotation Zrotation Yrotation
				JOINT head
				{
					OFFSET 0.000000 3.130431 0.000000 
					CHANNELS 3 Xrotation Zrotation Yrotation
					End Site
					{
						OFFSET 0.000000 3.130435 0.000000 
					}
				}
			}
			JOINT lCollar
			{
				OFFSET 3.470700 6.669187 -0.816635 
				CHANNELS 3 Yrotation Zrotation Xrotation
				JOINT lShldr
				{
					OFFSET 3.198488 0.000000 0.000000 
					CHANNELS 3 Zrotation Yrotation Xrotation
					JOINT lForeArm
					{
						OFFSET 10.139888 0.000000 0.000000 
						CHANNELS 3 Yrotation Zrotation Xrotation
						JOINT lHand
						{
							OFFSET 8.370511 0.000000 0.000000 
							CHANNELS 3 Zrotation Yrotation Xrotation
							End Site
							{
								OFFSET 4.083176 0.000000 0.000000 
							}
						}
					}
				}
			}
			JOINT rCollar
			{
				OFFSET -3.470700 6.669187 -0.816635 
				CHANNELS 3 Yrotation Zrotation Xrotation
				JOINT rShldr
				{
					OFFSET -3.198488 0.000000 0.000000 
					CHANNELS 3 Zrotation Yrotation Xrotation
					JOINT rForeArm
					{
						OFFSET -10.139888 0.000000 0.000000 
						CHANNELS 3 Yrotation Zrotation Xrotation
						JOINT rHand
						{
							OFFSET -8.370511 0.000000 0.000000 
							CHANNELS 3 Zrotation Yrotation Xrotation
							End Site
							{
								OFFSET -4.083176 0.000000 0.000000 
							}
						}
					}
				}
			}
		}
	}
	JOINT lThigh
	{
		OFFSET 5.308129 -1.633274 1.361059 
		CHANNELS 3 Xrotation Zrotation Yrotation
		JOINT lShin
		{
			OFFSET -2.041588 -20.007561 0.000000 
			CHANNELS 3 Xrotation Zrotation Yrotation
			JOINT lFoot
			{
				OFFSET 0.000000 -19.190928 -1.224953 
				CHANNELS 3 Xrotation Yrotation Zrotation
				End Site
				{
					OFFSET 0.000000 -2.449906 4.627600 
				}
			}
		}
	}
	JOINT rThigh
	{
		OFFSET -5.308129 -1.633274 1.361059 
		CHANNELS 3 Xrotation Zrotation Yrotation
		JOINT rShin
		{
			OFFSET 2.041588 -20.007561 0.000000 
			CHANNELS 3 Xrotation Zrotation Yrotation
			JOINT rFoot
			{
				OFFSET 0.000000 -19.190928 -1.224953 
				CHANNELS 3 Xrotation Yrotation Zrotation
				End Site
				{
					OFFSET 0.000000 -2.449906 4.627600 
				}
			}
		}
	}
}
MOTION
Frames: 13
Frame Time: 0.016667
-5.827691 43.337067 -5.688461 7.145360 -9.778480 22.744600 -11.444900 3.323160 -0.337376 15.003700 -2.663240 0.102298 -17.249701 -13.541000 18.642000 1.377320 -3.018850 7.942080 2.000000 -2.000000 0.000000 -83.238899 -21.628700 -166.697998 67.881401 -0.266327 0.126706 0.045114 0.002664 -132.477997 -2.000000 2.000000 0.000000 -103.067001 176.612000 -7.921630 -33.555000 0.328782 0.075571 -0.058367 -0.025708 -124.148003 -41.228638 -1.050383 -9.645019 52.329983 1.304316 3.742496 -8.148222 -16.527588 -3.375608 -27.421047 11.039520 -0.080621 39.146393 -1.660674 -3.184769 -18.373020 -0.324897 -0.476546 
-5.993547 42.932739 -6.109515 7.001780 -9.548730 23.022301 -11.847600 3.425440 -0.570076 14.672100 -2.506270 -0.005688 -17.476601 -13.888400 20.334999 1.512420 -3.419460 8.734040 2.000000 -2.000000 0.000000 -82.677299 -28.240101 -162.440002 73.906799 -0.252748 0.131408 0.045365 0.005552 -131.442993 -2.000000 2.000000 0.000000 78.297699 -0.547380 167.839996 -28.232700 0.335300 0.064677 -0.063997 -0.044904 -117.000000 -41.700520 -0.098790 -6.735252 58.913292 0.896501 4.059639 -12.557192 -13.790790 -4.127851 -28.639290 10.821643 -0.761172 41.228260 -1.580671 -3.323342 -19.104912 -1.559873 -0.990455 
-6.076846 42.975819 -6.414165 6.920220 -9.433980 22.404600 -11.997700 3.691100 -1.020370 14.431500 -1.505030 -0.297549 -18.122601 -14.955900 22.538601 1.685230 -4.113050 9.659720 2.000000 -2.000000 0.000000 -81.436699 -34.556000 -161.337006 79.463402 -0.239850 0.134459 0.045272 0.004544 -131.804993 -2.000000 2.000000 0.000000 79.506401 -3.594170 163.574997 -25.332300 0.338418 0.058499 -0.069232 -0.067386 -112.087997 -40.203896 1.650125 -3.758929 63.248619 0.593956 4.234555 -14.100683 -11.018664 -3.801630 -28.898069 10.990804 -0.148818 41.297054 -1.565886 -3.316229 -18.697603 -0.814982 -0.628703 
-5.988526 43.409073 -6.721546 7.472160 -9.316160 22.073299 -11.885300 3.616130 -1.904720 14.872400 -0.894020 -0.780168 -18.579901 -15.854300 24.404900 1.947030 -4.641320 10.421400 2.000000 -2.000000 0.000000 -78.707603 -41.012600 -162.009995 83.320801 -0.230751 0.135836 0.045057 0.001901 -132.751999 -2.000000 2.000000 0.000000 80.599800 -6.491550 162.250000 -25.332300 0.338418 0.058499 -0.069083 -0.067063 -112.214996 -37.699818 2.320455 -2.084602 65.443924 0.457354 4.290184 -12.888351 -12.262083 -3.827331 -28.719715 10.328771 -0.412281 39.335121 -1.624785 -3.216002 -17.196217 -0.025863 -0.369109 
-5.801675 44.072407 -7.029666 8.733910 -9.104000 21.340900 -12.232100 3.179540 -2.804300 14.706700 -0.621745 -1.254660 -18.054399 -16.954500 25.578100 2.542660 -5.122390 10.902800 2.000000 -2.000000 0.000000 105.921997 -133.669006 15.231900 84.961502 -0.226857 0.136235 0.044849 0.008336 -133.942993 -2.000000 2.000000 0.000000 81.618202 -10.187800 164.360992 -27.295200 0.336342 0.062697 -0.064250 -0.045598 -116.736000 -34.719692 2.373503 -0.484144 65.188637 0.486798 4.282599 -9.547915 -10.483096 -2.724698 -28.684097 9.385671 -0.391357 36.391861 -1.694961 -3.055077 -14.959966 0.282219 -0.364999 
-5.616439 44.702805 -7.357818 10.220800 -8.122770 20.131901 -12.500400 2.744950 -3.420970 14.648400 0.029141 -1.633880 -17.802900 -17.546200 26.249100 2.796600 -5.367530 11.197700 2.000000 -2.000000 0.000000 111.348999 -128.981003 10.872300 84.932198 -0.226926 0.136229 0.044776 0.006779 -134.500000 -2.000000 2.000000 0.000000 82.129601 -13.623000 167.591995 -29.619499 0.333700 0.067573 -0.059014 -0.028449 -123.142998 -31.075623 1.517998 1.476189 62.940731 0.691931 4.180698 -6.212890 -8.111923 -1.740913 -28.839241 8.109078 0.808313 33.869827 -1.748243 -2.912182 -12.552011 0.818762 -0.268638 
-5.351445 45.182873 -7.709032 11.859600 -7.093010 19.011999 -12.754700 2.293130 -4.110110 14.794600 0.592694 -2.032460 -17.681000 -17.957500 26.695700 2.953200 -5.456020 11.399600 2.000000 -2.000000 0.000000 117.429001 -125.089996 5.191800 83.643097 -0.229987 0.135923 0.044740 0.005878 -134.822006 -2.000000 2.000000 0.000000 82.288803 -16.324499 170.222000 -31.758200 0.331095 0.071961 -0.056858 -0.027995 -126.873001 -27.485308 -0.016327 2.449361 58.771648 0.989363 4.008994 -6.352496 -3.195518 -0.960593 -29.555563 6.654414 1.538668 32.259716 -1.775519 -2.804328 -10.663706 0.666458 -0.431504 
-5.063049 45.398418 -8.129963 14.063400 -6.376930 17.165001 -12.889500 1.923150 -4.411470 15.536500 0.914448 -2.209220 -18.275999 -18.695999 27.070200 2.961690 -5.797790 11.414500 2.000000 -2.000000 0.000000 124.106003 -121.832001 -1.708110 81.592300 -0.234840 0.135295 0.044753 0.006206 -134.705002 -2.000000 2.000000 0.000000 82.466499 -17.988501 171.858994 -33.633202 0.328679 0.075727 -0.056294 -0.024596 -128.102997 -24.925919 -1.488028 3.136722 52.894367 1.360368 3.730831 -5.621325 1.569992 -0.134268 -31.747545 5.571275 2.724701 31.791019 -1.758805 -2.801750 -9.059593 1.099990 -0.363096 
-4.816007 45.333855 -8.585978 14.853500 -5.438180 15.522200 -12.967000 1.555670 -4.649720 15.535900 1.245210 -2.384750 -18.918400 -18.339001 27.142300 2.726620 -5.679670 11.416100 2.000000 -2.000000 0.000000 130.287003 -120.068001 -8.453470 79.316902 -0.240194 0.134395 0.044810 0.007544 -134.225998 -2.000000 2.000000 0.000000 -97.346199 -160.406998 -6.943670 -35.879299 0.325624 0.080130 -0.056012 -0.022703 -128.787003 -21.317139 -2.715065 3.133011 45.698879 1.773596 3.370668 -7.018619 -0.044690 -0.405111 -33.624428 5.049143 4.114294 33.595814 -1.748782 -2.909553 -8.584572 0.910950 -0.369511 
-4.442325 45.137474 -9.103106 15.567100 -4.045700 13.756200 -13.140900 0.876869 -4.809640 15.448200 1.138040 -2.513820 -19.514200 -18.151600 26.838100 2.412440 -5.707530 11.233000 2.000000 -2.000000 0.000000 134.761002 -119.695000 -13.237800 76.963402 -0.245689 0.133242 0.044811 0.007572 -134.216995 -2.000000 2.000000 0.000000 -97.217796 -159.154999 -6.028700 -38.730900 0.321500 0.085542 -0.055225 -0.016270 -131.100998 -18.110157 -4.545124 3.057087 38.755222 2.053789 2.966502 -9.432453 -3.407156 -1.279171 -36.705261 3.963437 5.146511 37.784790 -1.663100 -3.124936 -8.457211 2.234922 -0.053769 
-4.184543 44.828323 -9.696778 16.124201 -2.861550 11.975500 -13.432200 0.345800 -5.045040 15.135000 1.438850 -2.704860 -19.416201 -17.194000 26.145500 2.189160 -5.228130 11.015700 2.000000 -2.000000 0.000000 -43.359200 -58.826801 164.057007 75.000504 -0.250233 0.132108 0.044869 0.008719 -133.807007 -2.000000 2.000000 0.000000 -97.480598 -158.576004 -4.770310 -42.441799 0.315741 0.092266 -0.054708 -0.009975 -133.356995 -16.401417 -5.939624 4.042739 34.052174 2.150403 2.701878 -11.416264 -5.649126 -2.077885 -41.045841 3.468961 5.480309 43.671036 -1.488283 -3.442441 -4.965701 4.482983 0.196091 
-3.982637 44.559933 -10.118698 15.992300 -1.549000 11.089200 -13.558000 -0.276102 -5.548440 14.899800 1.710380 -3.030640 -19.665701 -16.282000 25.224800 1.779490 -4.825880 10.666500 2.000000 -2.000000 0.000000 -44.591202 -56.071999 164.451996 73.311096 -0.254111 0.131007 0.044944 0.000236 -133.348007 -2.000000 2.000000 0.000000 -97.656303 -158.690994 -3.891130 -46.436001 0.309069 0.099069 -0.054670 -0.009347 -133.582001 -14.794547 -7.405236 5.876637 30.951582 2.166383 2.548356 -13.251609 -4.926879 -2.029697 -44.446125 2.596293 4.447793 49.410141 -1.238070 -3.742000 -1.667384 5.537705 0.083004 
-3.887262 44.425938 -10.301463 15.546900 0.037633 10.235100 -13.651000 -0.740131 -5.877990 14.721300 2.428770 -3.314330 -19.665501 -16.598000 24.331100 1.612780 -4.844490 10.222300 2.000000 -2.000000 0.000000 -47.726601 -52.140400 166.957001 71.279800 -0.258728 0.129534 0.044965 0.000564 -133.229996 -2.000000 2.000000 0.000000 -97.998802 -159.509003 -3.078630 -51.035599 0.300822 0.106306 -0.054861 -0.012184 -132.565994 -13.012224 -8.973482 7.728197 28.466810 2.174469 2.387953 -13.693530 -5.484934 -2.236713 -46.127399 1.852551 3.464480 53.057594 -1.055734 -3.889991 -1.526275 3.021235 0.079608 
